{
	"asset":{
		"generator":"Khronos glTF Blender I/O v4.0.44",
		"version":"2.0"
	},
	"scene":0,
	"scenes":[
		{
			"name":"Scene",
			"nodes":[
				0
			]
		}
	],
	"nodes":[
		{
			"mesh":0,
			"name":"Circle",
			"translation":[
				0,
				-1.5942555665969849,
				0
			]
		}
	],
	"meshes":[
		{
			"name":"Circle",
			"primitives":[
				{
					"attributes":{
						"POSITION":0,
						"NORMAL":1,
						"TEXCOORD_0":2
					},
					"indices":3
				}
			]
		}
	],
	"accessors":[
		{
			"bufferView":0,
			"componentType":5126,
			"count":928,
			"max":[
				1.302596092224121,
				3.1677496433258057,
				1.302596092224121
			],
			"min":[
				-1.302596092224121,
				0,
				-1.302596092224121
			],
			"type":"VEC3"
		},
		{
			"bufferView":1,
			"componentType":5126,
			"count":928,
			"type":"VEC3"
		},
		{
			"bufferView":2,
			"componentType":5126,
			"count":928,
			"type":"VEC2"
		},
		{
			"bufferView":3,
			"componentType":5123,
			"count":4404,
			"type":"SCALAR"
		}
	],
	"bufferViews":[
		{
			"buffer":0,
			"byteLength":11136,
			"byteOffset":0,
			"target":34962
		},
		{
			"buffer":0,
			"byteLength":11136,
			"byteOffset":11136,
			"target":34962
		},
		{
			"buffer":0,
			"byteLength":7424,
			"byteOffset":22272,
			"target":34962
		},
		{
			"buffer":0,
			"byteLength":8808,
			"byteOffset":29696,
			"target":34963
		}
	],
	"buffers":[
		{
			"byteLength":38504,
			"uri":"Jar.bin"
		}
	]
}
