<?xml version="1.0" encoding="UTF-8"?>
<svg id="Capa_1" data-name="Capa 1" xmlns="http://www.w3.org/2000/svg" viewBox="0 0 565 565">
  <defs>
    <style>
      .cls-1 {
        fill: #fefefe;
      }

      .cls-1, .cls-2 {
        stroke-width: 0px;
      }

      .cls-2 {
        fill: #cb1920;
      }
    </style>
  </defs>
  <path class="cls-1" d="m0,565c0-188.31,0-376.62,0-565h565v565H0ZM282.89,51.01c-126.26-.16-230.31,103.22-231.24,228.43-.97,130.1,104.06,233.94,230.78,234.04,126.97.1,231.63-102.9,231.81-228.72.19-129.94-102.4-233.59-231.35-233.75Z"/>
  <path class="cls-2" d="m282.89,51.01c128.95.16,231.53,103.81,231.35,233.75-.18,125.82-104.84,228.82-231.81,228.72-126.72-.1-231.75-103.94-230.78-234.04.93-125.21,104.98-228.58,231.24-228.43Zm1.71,151c-9.68-16.27-23.99-25.14-40-31.2-8.1-3.07-17.01-4.71-25.69-5.42-24.25-1.97-47.41,1.8-68.01,15.93-12.3,8.44-22.16,19.25-31.3,31.29,13.96,11.64,27.51,22.93,40.45,33.71,5.11-4.69,9.73-8.96,14.38-13.2,7.32-6.68,15.12-12.72,25.26-14.14,10.15-1.43,19.99-.23,26.39,8.91,6.27,8.96,5.33,18.77.02,27.77-3.16,5.35-7.22,10.51-11.91,14.55-10.66,9.21-21.86,17.8-33.02,26.41-19.86,15.33-39.82,30.54-59.83,45.67-2.4,1.82-3.25,3.72-3.21,6.64.14,11.64.06,23.29.07,34.93,0,2.28,0,4.56,0,6.86h176.44v-13.64c.83,0,1.18-.09,1.45.02.61.25,1.2.56,1.77.89,31.4,18.04,64.93,22.48,99.56,13.02,35.37-9.67,54.59-35.79,54.48-71.23-.08-25.68-13.84-45.53-37.78-55.18-6.07-2.45-12.36-4.35-18.82-6.6.6-.74.93-1.31,1.41-1.72,15.74-13.53,31.52-27.03,47.22-40.61,1.4-1.21,3.25-3,3.28-4.55.26-13.92.15-27.85.15-42.06h-160.73c0,9.16.13,17.96-.09,26.74-.05,2.09-1.26,4.14-1.93,6.21Z"/>
  <path class="cls-2" d="m203.6,340.14c6.45-4.53,12.62-8.6,18.5-13.05,15.35-11.62,31.06-22.82,45.69-35.29,12.64-10.78,20.01-24.97,23.07-41.72,1.91-10.45-.02-20.46-.08-31.14h80.61c-7.86,7.12-15.15,13.77-22.48,20.38-8.39,7.57-16.73,15.2-25.28,22.59-2.39,2.07-2.82,3.93-1.93,6.84,2.43,7.93,4.74,15.9,6.71,23.95.75,3.07,2.11,3.94,5.09,3.97,10.8.11,21.62.08,32.39.85,6.99.5,13.83,2.22,19.37,7.3,6.36,5.83,7.83,13.02,5.96,20.92-2.04,8.59-8.28,13.54-16.48,15.56-16.59,4.1-31.95.23-46.07-8.71-5.44-3.44-10.44-7.67-15.26-11.97-2.57-2.29-4.11-2.43-6.54.03-6.29,6.35-12.79,12.5-19.27,18.66-.85.81-2.13,1.65-3.21,1.65-26.28.07-52.56.03-78.84-.01-.42,0-.84-.33-1.95-.78Z"/>
</svg>